<svg xmlns="http://www.w3.org/2000/svg" width="49.743" height="92.689" viewBox="0 0 49.743 92.689">
  <path id="arrow-right" d="M3.63,92.689a3.114,3.114,0,0,1-2.219-.907,2.906,2.906,0,0,1-.954-2.173,2.959,2.959,0,0,1,.907-2.175L42.77,46.029,2,5.345a3.735,3.735,0,0,1-.771-1.451,2.825,2.825,0,0,1,0-1.585A3.78,3.78,0,0,1,2,.907,3.013,3.013,0,0,1,4.217,0,3.013,3.013,0,0,1,6.436.907L49.292,43.854a2.972,2.972,0,0,1,.68,1.041,3.25,3.25,0,0,1,.227,1.178,2.9,2.9,0,0,1-.227,1.131,3.125,3.125,0,0,1-.68,1L5.8,91.782a2.972,2.972,0,0,1-1.041.68A3.137,3.137,0,0,1,3.63,92.689Z" transform="translate(-0.457)" fill="#fff"/>
</svg>
