<svg xmlns="http://www.w3.org/2000/svg" width="49.743" height="92.689" viewBox="0 0 49.743 92.689">
  <path id="arrow-right" d="M47.027,92.689a3.114,3.114,0,0,0,2.219-.907,2.906,2.906,0,0,0,.954-2.173,2.959,2.959,0,0,0-.907-2.175L7.887,46.029,48.658,5.345a3.735,3.735,0,0,0,.771-1.451,2.825,2.825,0,0,0,0-1.585,3.78,3.78,0,0,0-.771-1.4,3.167,3.167,0,0,0-4.438,0L1.364,43.854a2.972,2.972,0,0,0-.68,1.041,3.25,3.25,0,0,0-.227,1.178A2.9,2.9,0,0,0,.684,47.2a3.125,3.125,0,0,0,.68,1l43.49,43.58a2.972,2.972,0,0,0,1.041.68A3.137,3.137,0,0,0,47.027,92.689Z" transform="translate(-0.457)" fill="#fff"/>
</svg>
