<svg xmlns="http://www.w3.org/2000/svg" xmlns:xlink="http://www.w3.org/1999/xlink" width="256.586" height="49.559" viewBox="0 0 256.586 49.559">
  <defs>
    <filter id="Path_3" x="3.219" y="5.354" width="41.868" height="41.868" filterUnits="userSpaceOnUse">
      <feOffset dy="3" input="SourceAlpha"/>
      <feGaussianBlur stdDeviation="3" result="blur"/>
      <feFlood flood-opacity="0.161"/>
      <feComposite operator="in" in2="blur"/>
      <feComposite in="SourceGraphic"/>
    </filter>
    <filter id="Path_3-2" x="2.086" y="2.179" width="44.904" height="44.904" filterUnits="userSpaceOnUse">
      <feOffset dy="3" input="SourceAlpha"/>
      <feGaussianBlur stdDeviation="3" result="blur-2"/>
      <feFlood flood-opacity="0.161"/>
      <feComposite operator="in" in2="blur-2"/>
      <feComposite in="SourceGraphic"/>
    </filter>
    <filter id="Path_3-3" x="2.086" y="0" width="44.904" height="44.904" filterUnits="userSpaceOnUse">
      <feOffset dy="3" input="SourceAlpha"/>
      <feGaussianBlur stdDeviation="3" result="blur-3"/>
      <feFlood flood-opacity="0.161"/>
      <feComposite operator="in" in2="blur-3"/>
      <feComposite in="SourceGraphic"/>
    </filter>
    <filter id="Path_3-4" x="4.37" y="0.761" width="44.904" height="44.904" filterUnits="userSpaceOnUse">
      <feOffset dy="3" input="SourceAlpha"/>
      <feGaussianBlur stdDeviation="3" result="blur-4"/>
      <feFlood flood-opacity="0.161"/>
      <feComposite operator="in" in2="blur-4"/>
      <feComposite in="SourceGraphic"/>
    </filter>
    <filter id="Path_3-5" x="0" y="3.109" width="44.904" height="44.904" filterUnits="userSpaceOnUse">
      <feOffset dy="3" input="SourceAlpha"/>
      <feGaussianBlur stdDeviation="3" result="blur-5"/>
      <feFlood flood-opacity="0.161"/>
      <feComposite operator="in" in2="blur-5"/>
      <feComposite in="SourceGraphic"/>
    </filter>
  </defs>
  <g id="Group_2149" data-name="Group 2149" transform="translate(-39.941 -327.711)">
    <g id="Group_38" data-name="Group 38" transform="translate(91.527 339.047)">
      <text id="STEPHANIE_RANEGAR" data-name="STEPHANIE RANEGAR" transform="translate(2)" font-size="17" font-family="Tahoma" letter-spacing="0.096em"><tspan x="0" y="17">STEPHANIE RANEGAR</tspan></text>
      <text id="WEB_SOLUTIONS" data-name="WEB SOLUTIONS" transform="translate(2 18.26)" fill="#1c1d20" font-size="10" font-family="Poppins-Regular, Poppins" letter-spacing="0.422em"><tspan x="0" y="11">WEB SOLUTIONS</tspan></text>
    </g>
    <g id="Group_39" data-name="Group 39" transform="translate(52.161 339.065)">
      <path id="Path_1" data-name="Path 1" d="M0,1.858,19.492,0,25.34,6.012,6.209,8.074Z" transform="translate(5.765 12.703) rotate(45)" fill="#4260b6" opacity="0.7"/>
      <g transform="matrix(1, 0, 0, 1, -12.22, -11.35)" filter="url(#Path_3)">
        <path id="Path_3-6" data-name="Path 3" d="M0,6.254,19.711,7.824,25.93,1.508,6.254,0Z" transform="translate(36.09 16.89) rotate(135)" fill="#5378e3"/>
      </g>
    </g>
    <g id="Group_40" data-name="Group 40" transform="translate(48.319 334.767)">
      <g id="Group_34" data-name="Group 34" transform="translate(0.622 -1.056)" style="mix-blend-mode: darken;isolation: isolate">
        <g id="Group_29" data-name="Group 29" transform="translate(2.086 2.179)">
          <path id="Path_1-2" data-name="Path 1" d="M0,3.355,21.778,0l6.1,6.291L6.486,9.85Z" transform="translate(7.024 13.775) rotate(45)" fill="#f02e6e" opacity="0.7"/>
          <g transform="matrix(1, 0, 0, 1, -11.09, -8.18)" filter="url(#Path_3-2)">
            <path id="Path_3-7" data-name="Path 3" d="M0,6.534,21.988,9.569l6.49-6.6L6.534,0Z" transform="translate(37.99 14.95) rotate(135)" fill="#f02e6e"/>
          </g>
        </g>
        <g id="Group_2" data-name="Group 2" transform="translate(2.086 0)">
          <g id="Group_33" data-name="Group 33" transform="translate(0)" opacity="0.44">
            <path id="Path_1-3" data-name="Path 1" d="M0,3.355,21.778,0l6.1,6.291L6.486,9.85Z" transform="translate(7.024 13.775) rotate(45)" fill="#726ce5" opacity="0.7"/>
            <g transform="matrix(1, 0, 0, 1, -11.09, -6)" filter="url(#Path_3-3)">
              <path id="Path_3-8" data-name="Path 3" d="M0,6.534,21.988,9.569l6.49-6.6L6.534,0Z" transform="translate(37.99 12.77) rotate(135)" fill="#726ce5"/>
            </g>
          </g>
          <g id="Group_32" data-name="Group 32" transform="translate(2.283 0.761)">
            <path id="Path_1-4" data-name="Path 1" d="M0,3.355,21.778,0l6.1,6.291L6.486,9.85Z" transform="translate(7.024 13.775) rotate(45)" fill="#8461ff" opacity="0.81"/>
            <g transform="matrix(1, 0, 0, 1, -13.37, -6.76)" filter="url(#Path_3-4)">
              <path id="Path_3-9" data-name="Path 3" d="M0,6.534,21.988,9.569l6.49-6.6L6.534,0Z" transform="translate(40.27 13.53) rotate(135)" fill="#8461ff"/>
            </g>
          </g>
        </g>
        <g id="Group_30" data-name="Group 30" transform="translate(0 3.108)" opacity="0.33">
          <g id="Group_31" data-name="Group 31">
            <path id="Path_1-5" data-name="Path 1" d="M0,3.355,21.778,0l6.1,6.291L6.486,9.85Z" transform="translate(7.024 13.775) rotate(45)" fill="#f02e6e" opacity="0.7"/>
            <g transform="matrix(1, 0, 0, 1, -9, -9.11)" filter="url(#Path_3-5)">
              <path id="Path_3-10" data-name="Path 3" d="M0,6.534,21.988,9.569l6.49-6.6L6.534,0Z" transform="translate(35.9 15.87) rotate(135)" fill="#f02e6e"/>
            </g>
          </g>
        </g>
      </g>
    </g>
  </g>
</svg>
