<svg xmlns="http://www.w3.org/2000/svg" xmlns:xlink="http://www.w3.org/1999/xlink" width="273.92" height="364.61" viewBox="0 0 273.92 364.61">
  <defs>
    <filter id="Path_3" x="49.306" y="43.768" width="212.728" height="212.728" filterUnits="userSpaceOnUse">
      <feOffset dy="3" input="SourceAlpha"/>
      <feGaussianBlur stdDeviation="3" result="blur"/>
      <feFlood flood-opacity="0.161"/>
      <feComposite operator="in" in2="blur"/>
      <feComposite in="SourceGraphic"/>
    </filter>
    <filter id="Path_3-2" x="18.221" y="19.029" width="235.758" height="235.758" filterUnits="userSpaceOnUse">
      <feOffset dy="3" input="SourceAlpha"/>
      <feGaussianBlur stdDeviation="3" result="blur-2"/>
      <feFlood flood-opacity="0.161"/>
      <feComposite operator="in" in2="blur-2"/>
      <feComposite in="SourceGraphic"/>
    </filter>
    <filter id="Path_3-3" x="18.221" y="0" width="235.758" height="235.758" filterUnits="userSpaceOnUse">
      <feOffset dy="3" input="SourceAlpha"/>
      <feGaussianBlur stdDeviation="3" result="blur-3"/>
      <feFlood flood-opacity="0.161"/>
      <feComposite operator="in" in2="blur-3"/>
      <feComposite in="SourceGraphic"/>
    </filter>
    <filter id="Path_3-4" x="38.162" y="6.647" width="235.758" height="235.758" filterUnits="userSpaceOnUse">
      <feOffset dy="3" input="SourceAlpha"/>
      <feGaussianBlur stdDeviation="3" result="blur-4"/>
      <feFlood flood-opacity="0.161"/>
      <feComposite operator="in" in2="blur-4"/>
      <feComposite in="SourceGraphic"/>
    </filter>
    <filter id="Path_3-5" x="0" y="27.147" width="235.758" height="235.758" filterUnits="userSpaceOnUse">
      <feOffset dy="3" input="SourceAlpha"/>
      <feGaussianBlur stdDeviation="3" result="blur-5"/>
      <feFlood flood-opacity="0.161"/>
      <feComposite operator="in" in2="blur-5"/>
      <feComposite in="SourceGraphic"/>
    </filter>
  </defs>
  <g id="Group_2146" data-name="Group 2146" transform="translate(-17 -122)">
    <g id="Group_2144" data-name="Group 2144" transform="translate(75.306 171.768)">
      <path id="Path_1" data-name="Path 1" d="M0,15.159,159.03,0l47.709,49.046L50.657,65.872Z" transform="translate(47.035 103.642) rotate(45)" fill="#4260b6" opacity="0.7"/>
      <g transform="matrix(1, 0, 0, 1, -58.31, -49.77)" filter="url(#Path_3)">
        <path id="Path_3-6" data-name="Path 3" d="M0,51.027l160.818,12.8L211.555,12.3,51.027,0Z" transform="translate(253.03 94.9) rotate(135)" fill="#5378e3"/>
      </g>
    </g>
    <g id="Group_2145" data-name="Group 2145" transform="translate(26 128)">
      <g id="Group_34" data-name="Group 34" transform="translate(0 0)" style="mix-blend-mode: darken;isolation: isolate">
        <g id="Group_29" data-name="Group 29" transform="translate(18.221 19.029)">
          <path id="Path_1-2" data-name="Path 1" d="M0,16.952,177.839,0,231.19,54.847,56.649,73.662Z" transform="translate(52.598 115.9) rotate(45)" fill="#f02e6e" opacity="0.7"/>
          <g transform="matrix(1, 0, 0, 1, -27.22, -25.03)" filter="url(#Path_3-2)">
            <path id="Path_3-7" data-name="Path 3" d="M0,57.062,179.838,71.381l56.737-57.623L57.062,0Z" transform="translate(244.98 75.5) rotate(135)" fill="#f02e6e"/>
          </g>
        </g>
        <g id="Group_2" data-name="Group 2" transform="translate(18.221)">
          <g id="Group_33" data-name="Group 33" transform="translate(0)" opacity="0.44">
            <path id="Path_1-3" data-name="Path 1" d="M0,16.952,177.839,0,231.19,54.847,56.649,73.662Z" transform="translate(52.598 115.9) rotate(45)" fill="#726ce5" opacity="0.7"/>
            <g transform="matrix(1, 0, 0, 1, -27.22, -6)" filter="url(#Path_3-3)">
              <path id="Path_3-8" data-name="Path 3" d="M0,57.062,179.838,71.381l56.737-57.623L57.062,0Z" transform="translate(244.98 56.47) rotate(135)" fill="#726ce5"/>
            </g>
          </g>
          <g id="Group_32" data-name="Group 32" transform="translate(19.941 6.647)">
            <path id="Path_1-4" data-name="Path 1" d="M0,16.952,177.839,0,231.19,54.847,56.649,73.662Z" transform="translate(52.598 115.9) rotate(45)" fill="#8461ff" opacity="0.81"/>
            <g transform="matrix(1, 0, 0, 1, -47.16, -12.65)" filter="url(#Path_3-4)">
              <path id="Path_3-9" data-name="Path 3" d="M0,57.062,179.838,71.381l56.737-57.623L57.062,0Z" transform="translate(264.92 63.12) rotate(135)" fill="#8461ff"/>
            </g>
          </g>
        </g>
        <g id="Group_30" data-name="Group 30" transform="translate(0 27.147)" opacity="0.33">
          <g id="Group_31" data-name="Group 31" transform="translate(0 0)">
            <path id="Path_1-5" data-name="Path 1" d="M0,16.952,177.839,0,231.19,54.847,56.649,73.662Z" transform="translate(52.598 115.9) rotate(45)" fill="#f02e6e" opacity="0.7"/>
            <g transform="matrix(1, 0, 0, 1, -9, -33.15)" filter="url(#Path_3-5)">
              <path id="Path_3-10" data-name="Path 3" d="M0,57.062,179.838,71.381l56.737-57.623L57.062,0Z" transform="translate(226.76 83.62) rotate(135)" fill="#f02e6e"/>
            </g>
          </g>
        </g>
      </g>
    </g>
  </g>
</svg>
