<?xml version="1.0" encoding="UTF-8"?><svg xmlns="http://www.w3.org/2000/svg" xmlns:xlink="http://www.w3.org/1999/xlink" viewBox="0 0 100 70.7"><defs><style>.cls-1{stroke-width:.07px;}.cls-1,.cls-2,.cls-3{mix-blend-mode:overlay;stroke:#fff;stroke-linecap:round;stroke-linejoin:round;}.cls-1,.cls-2,.cls-3,.cls-4{fill:none;}.cls-2{stroke-width:.1px;}.cls-5{isolation:isolate;}.cls-3{stroke-width:.05px;}.cls-6{clip-path:url(#clippath);}</style><clipPath id="clippath"><rect class="cls-4" width="100" height="70.7"/></clipPath></defs><g class="cls-5"><g id="Layer_2"><g id="Layer_3"><g class="cls-6"><line class="cls-2" x1="83.34" y1="-11.57" x2="-8.89" y2="80.67"/><line class="cls-3" x1="106.84" y1="-31.94" x2="14.61" y2="60.29"/><line class="cls-2" x1="129.46" y1="-41.4" x2="37.23" y2="50.83"/><line class="cls-2" x1="57.29" y1="41.59" x2="-34.94" y2="133.83"/><line class="cls-3" x1="150.9" y1="-41.4" x2="58.67" y2="50.83"/><line class="cls-2" x1="73.53" y1="42.85" x2="-18.7" y2="135.08"/><line class="cls-2" x1="150.9" y1="-30.27" x2="58.67" y2="61.96"/><line class="cls-2" x1="94.39" y1="38.77" x2="2.16" y2="131"/><line class="cls-2" x1="85.44" y1="52.75" x2="-6.79" y2="144.98"/><line class="cls-3" x1="173.52" y1="-25.82" x2="81.29" y2="66.41"/><line class="cls-2" x1="96.12" y1="56.52" x2="3.88" y2="148.75"/><line class="cls-2" x1="108.24" y1="-46.12" x2="16.01" y2="46.12"/><line class="cls-3" x1="124.04" y1="-64.98" x2="31.81" y2="27.25"/><line class="cls-2" x1="30.23" y1="17.64" x2="-62" y2="109.87"/><line class="cls-2" x1="94.39" y1="-49.35" x2="2.16" y2="42.88"/><line class="cls-2" x1="97.48" y1="-58.72" x2="5.25" y2="33.51"/><line class="cls-3" x1="27.41" y1="4.72" x2="-64.82" y2="96.95"/><line class="cls-2" x1="18.12" y1="2.43" x2="-74.11" y2="94.66"/><line class="cls-2" x1="7.68" y1="9.43" x2="-84.55" y2="101.66"/><line class="cls-1" x1="42.6" y1="-32.77" x2="-49.63" y2="59.46"/><line class="cls-2" x1="22.48" y1="34.55" x2="-69.76" y2="126.78"/><line class="cls-2" x1="129.46" y1="-27.64" x2="37.23" y2="64.59"/><line class="cls-2" x1="144.6" y1="17.64" x2="52.37" y2="109.87"/></g></g></g></g></svg>