<?xml version="1.0" encoding="UTF-8"?><svg xmlns="http://www.w3.org/2000/svg" xmlns:xlink="http://www.w3.org/1999/xlink" viewBox="0 0 100 70.7"><defs><style>.cls-1{fill:url(#linear-gradient-15);}.cls-1,.cls-2,.cls-3,.cls-4,.cls-5,.cls-6,.cls-7,.cls-8,.cls-9,.cls-10,.cls-11,.cls-12,.cls-13,.cls-14,.cls-15{mix-blend-mode:soft-light;}.cls-2{fill:url(#linear-gradient-8);}.cls-16{isolation:isolate;}.cls-3{fill:url(#linear-gradient-3);}.cls-4{fill:url(#linear-gradient-13);}.cls-5{fill:url(#linear-gradient-5);}.cls-6{fill:url(#linear-gradient-10);}.cls-7{fill:url(#linear-gradient-12);}.cls-8{fill:url(#linear-gradient);}.cls-9{fill:url(#linear-gradient-9);}.cls-17{clip-path:url(#clippath);}.cls-10{fill:url(#linear-gradient-2);}.cls-18{fill:none;}.cls-11{fill:url(#linear-gradient-11);}.cls-12{fill:url(#linear-gradient-7);}.cls-13{fill:url(#linear-gradient-6);}.cls-14{fill:url(#linear-gradient-4);}.cls-15{fill:url(#linear-gradient-14);}</style><clipPath id="clippath"><rect class="cls-18" width="100" height="70.7"/></clipPath><linearGradient id="linear-gradient" x1="40.37" y1="-13.68" x2="40.37" y2="-146.22" gradientTransform="translate(17.9 111.5)" gradientUnits="userSpaceOnUse"><stop offset="0" stop-color="#fff"/><stop offset="1" stop-color="#000"/></linearGradient><linearGradient id="linear-gradient-2" x1="68.75" y1="-70.39" x2="68.75" y2="-202.92" gradientTransform="translate(-129.78 162.84) scale(2.85 .9)" xlink:href="#linear-gradient"/><linearGradient id="linear-gradient-3" x1="59.16" y1="-52.5" x2="59.16" y2="-185.03" gradientTransform="translate(-133.19 138.77) scale(2.85 .9)" xlink:href="#linear-gradient"/><linearGradient id="linear-gradient-4" x1="50.98" y1="-122.35" x2="50.98" y2="-254.88" gradientTransform="translate(-130.18 126.13) scale(2.85 .57)" xlink:href="#linear-gradient"/><linearGradient id="linear-gradient-5" x1="-38.38" y1="-146.57" x2="-38.38" y2="-279.11" gradientTransform="translate(114.46 204.73) scale(1.06 .78)" gradientUnits="userSpaceOnUse"><stop offset="0" stop-color="#000"/><stop offset="1" stop-color="#fff"/></linearGradient><linearGradient id="linear-gradient-6" x1="-99.7" y1="-145.14" x2="-99.7" y2="-277.68" gradientTransform="translate(121.4 113.3) scale(1.06 .51)" xlink:href="#linear-gradient-5"/><linearGradient id="linear-gradient-7" x1="-195.29" y1="-475.56" x2="-195.29" y2="-608.11" gradientTransform="translate(279.17 186.29) scale(1.4 .33)" xlink:href="#linear-gradient"/><linearGradient id="linear-gradient-8" x1="64.38" y1="-5.39" x2="64.38" y2="-137.92" gradientTransform="translate(-132.06 108.23) scale(2.85 1)" xlink:href="#linear-gradient"/><linearGradient id="linear-gradient-9" x1="47.83" y1="18.41" x2="47.83" y2="-114.12" gradientTransform="translate(-19.81 91.09) scale(2.29 .38)" xlink:href="#linear-gradient"/><linearGradient id="linear-gradient-10" x1="55.17" y1="5.12" x2="55.17" y2="-127.41" gradientTransform="translate(-131.79 86.56) scale(2.85 1)" xlink:href="#linear-gradient-5"/><linearGradient id="linear-gradient-11" x1="260.88" y1="134.56" x2="260.88" y2="2.03" gradientTransform="translate(-138.21 -20.74) scale(.65 .76)" xlink:href="#linear-gradient-5"/><linearGradient id="linear-gradient-12" x1="7.88" y1="-108.44" x2="7.88" y2="-240.98" gradientTransform="translate(57.51 201.08) scale(1.43 .84)" xlink:href="#linear-gradient-5"/><linearGradient id="linear-gradient-13" x1="22.14" y1="-47.05" x2="22.14" y2="-179.59" gradientTransform="translate(55.6 110.25) scale(1.43 .41)" xlink:href="#linear-gradient-5"/><linearGradient id="linear-gradient-14" x1="13.7" y1="-204.38" x2="13.7" y2="-336.9" gradientTransform="translate(56.14 245.96) scale(1.43 .69)" xlink:href="#linear-gradient"/><linearGradient id="linear-gradient-15" x1="153.21" y1="-95.43" x2="153.21" y2="-227.98" gradientTransform="translate(-392.83 135.85) scale(3.16 .47)" xlink:href="#linear-gradient"/></defs><g class="cls-16"><g id="Layer_2"><g id="Layer_2-2"><g class="cls-17"><rect class="cls-8" x="54.63" y="-34.72" width="7.27" height="132.54" transform="translate(39.37 -31.96) rotate(45)"/><rect class="cls-10" x="55.94" y="-20.36" width="20.73" height="119.65" transform="translate(47.32 -35.32) rotate(45)"/><rect class="cls-3" x="25.18" y="-28.28" width="20.73" height="119.65" transform="translate(32.72 -15.9) rotate(45)"/><rect class="cls-14" x="4.86" y="-18.81" width="20.73" height="75.36" transform="translate(17.8 -5.24) rotate(45)"/><rect class="cls-5" x="69.9" y="-11.65" width="7.71" height="102.75" transform="translate(49.69 -40.52) rotate(45)"/><rect class="cls-13" x="11.79" y="-27.84" width="7.71" height="67.37" transform="translate(8.72 -9.35) rotate(45)"/><rect class="cls-12" x="1.29" y="-13.57" width="10.16" height="43.56" transform="translate(7.67 -2.1) rotate(45)"/><rect class="cls-2" x="41.2" y="-29.69" width="20.73" height="132.54" transform="translate(40.97 -25.75) rotate(45)"/><rect class="cls-9" x="81.62" y="47.43" width="16.68" height="50.7" transform="translate(77.81 -42.29) rotate(45)"/><rect class="cls-6" x="15.18" y="-40.85" width="20.73" height="132.54" transform="translate(25.46 -10.62) rotate(45)"/><rect class="cls-11" x="28.78" y="-19.2" width="4.72" height="100.71" transform="translate(31.15 -12.89) rotate(45)"/><rect class="cls-7" x="63.56" y="-2.21" width="10.37" height="111.81" transform="translate(58.1 -32.88) rotate(45)"/><rect class="cls-4" x="81.99" y="36.98" width="10.37" height="54.07" transform="translate(70.8 -42.89) rotate(45)"/><rect class="cls-15" x="70.49" y="12.6" width="10.37" height="91.8" transform="translate(63.53 -36.38) rotate(45)"/><rect class="cls-1" x="79.9" y="28.64" width="22.98" height="62.33" transform="translate(69.06 -47.11) rotate(45)"/></g></g></g></g></svg>