<?xml version="1.0" encoding="UTF-8"?><svg xmlns="http://www.w3.org/2000/svg" xmlns:xlink="http://www.w3.org/1999/xlink" viewBox="0 0 100 70.7"><defs><style>.cls-1,.cls-2,.cls-3,.cls-4,.cls-5,.cls-6,.cls-7,.cls-8,.cls-9,.cls-10,.cls-11,.cls-12,.cls-13,.cls-14,.cls-15,.cls-16,.cls-17,.cls-18,.cls-19,.cls-20,.cls-21,.cls-22{fill:none;}.cls-1,.cls-2,.cls-8,.cls-11,.cls-13,.cls-15,.cls-16,.cls-17,.cls-21,.cls-23{stroke-miterlimit:10;}.cls-1,.cls-5,.cls-18{stroke-width:.5px;}.cls-1,.cls-7,.cls-18,.cls-22{stroke:#37235e;}.cls-24{fill:#37235e;}.cls-25{fill:#fff;}.cls-2,.cls-3,.cls-8,.cls-12,.cls-13,.cls-21{stroke:#f7477f;}.cls-2,.cls-17,.cls-23{stroke-width:.1px;}.cls-3,.cls-4,.cls-5,.cls-6,.cls-7,.cls-9,.cls-10,.cls-12,.cls-14,.cls-18,.cls-20,.cls-22{stroke-linecap:round;stroke-linejoin:round;}.cls-3,.cls-22{stroke-width:.6px;}.cls-4{stroke-width:.75px;}.cls-4,.cls-5,.cls-9,.cls-10,.cls-16,.cls-20{stroke:#f8f165;}.cls-26{clip-path:url(#clippath-2);}.cls-27{isolation:isolate;}.cls-28{fill:#01ecf6;}.cls-29{clip-path:url(#clippath-6);}.cls-6,.cls-10{stroke-width:.2px;}.cls-6,.cls-11,.cls-15,.cls-17,.cls-23{stroke:#01ecf6;}.cls-7,.cls-9,.cls-12,.cls-14{stroke-width:.2px;}.cls-30{clip-path:url(#clippath-1);}.cls-31{clip-path:url(#clippath-4);}.cls-8{stroke-width:.28px;}.cls-11{stroke-width:.3px;}.cls-13{stroke-width:.19px;}.cls-32{fill:#f8f165;}.cls-33,.cls-23{fill:#f7477f;}.cls-14{stroke:#fff;}.cls-15{stroke-width:.23px;}.cls-16,.cls-20{stroke-width:.4px;}.cls-34{clip-path:url(#clippath);}.cls-35{clip-path:url(#clippath-3);}.cls-36{mix-blend-mode:overlay;}.cls-37{fill:#231c43;}.cls-38{clip-path:url(#clippath-5);}.cls-21{stroke-width:.31px;}</style><clipPath id="clippath"><rect class="cls-19" width="100" height="70.7"/></clipPath><clipPath id="clippath-1"><circle class="cls-19" cx="29.78" cy="46.86" r="9.54" transform="translate(-24.41 34.78) rotate(-45)"/></clipPath><clipPath id="clippath-2"><circle class="cls-19" cx="1.63" cy="0" r="11.9"/></clipPath><clipPath id="clippath-3"><circle class="cls-19" cx="86.48" cy="55.52" r="4.59"/></clipPath><clipPath id="clippath-4"><circle class="cls-19" cx="77.3" cy="34.31" r="6.93"/></clipPath><clipPath id="clippath-5"><circle class="cls-19" cx="32.42" cy="0" r="6.93"/></clipPath><clipPath id="clippath-6"><path class="cls-19" d="M62.68,33.52c0,1.6-1.3,2.91-2.91,2.91s-2.91-1.3-2.91-2.91,1.3-2.91,2.91-2.91,2.91,1.3,2.91,2.91Z"/></clipPath></defs><g class="cls-27"><g id="Layer_2"><g id="Layer_5"><g class="cls-36"><g class="cls-34"><g><path class="cls-18" d="M28.2,23l6.76-6.76c.92-.92,2.42-.92,3.34,0h0c.92,.92,.92,2.42,0,3.34l-10.87,10.87"/><path class="cls-18" d="M30.13,34.44l-6.76,6.76c-.92,.92-2.42,.92-3.34,0h0c-.92-.92-.92-2.42,0-3.34l10.87-10.87"/></g><path class="cls-24" d="M64.76,59.58c0,1.71-1.38,3.09-3.09,3.09s-3.09-1.38-3.09-3.09,1.38-3.09,3.09-3.09,3.09,1.38,3.09,3.09Z"/><path class="cls-24" d="M44.98,19.78c0,3.98-3.23,7.21-7.21,7.21s-7.21-3.23-7.21-7.21,3.23-7.21,7.21-7.21,7.21,3.23,7.21,7.21Z"/><path class="cls-24" d="M93.2,54.3c0,2.95-2.39,5.34-5.34,5.34s-5.34-2.39-5.34-5.34,2.39-5.34,5.34-5.34,5.34,2.39,5.34,5.34Z"/><circle class="cls-24" cx="27.82" cy="48.13" r="9.86"/><path class="cls-24" d="M81.1,.06c0,2.5-2.03,4.52-4.52,4.52s-4.52-2.03-4.52-4.52,2.03-4.52,4.52-4.52,4.52,2.03,4.52,4.52Z"/><path class="cls-33" d="M94.61-17.06L53.28,24.27c-.25,.25-.66,.25-.91,0h0c-.25-.25-.25-.66,0-.91L93.7-17.96c.25-.25,.66-.25,.91,0h0c.25,.25,.25,.66,0,.91Z"/><path class="cls-33" d="M122.09-8.85L47.3,65.95c-.45,.45-1.19,.45-1.64,0h0c-.45-.45-.45-1.19,0-1.64L120.45-10.49c.45-.45,1.19-.45,1.64,0h0c.45,.45,.45,1.19,0,1.64Z"/><path class="cls-33" d="M16.45,58.87c0,.32-.26,.59-.59,.59s-.59-.26-.59-.59,.26-.59,.59-.59,.59,.26,.59,.59Z"/><path class="cls-33" d="M17.88,57.44c0,.32-.26,.59-.59,.59s-.59-.26-.59-.59,.26-.59,.59-.59,.59,.26,.59,.59Z"/><g><path class="cls-23" d="M13.67,29.45c0,.32-.26,.59-.59,.59s-.59-.26-.59-.59,.26-.59,.59-.59,.59,.26,.59,.59Z"/><circle class="cls-23" cx="11.88" cy="30.66" r=".53"/><path class="cls-23" d="M11.15,31.88c0,.26-.21,.48-.48,.48s-.48-.21-.48-.48,.21-.48,.48-.48,.48,.21,.48,.48Z"/><path class="cls-23" d="M9.9,33.09c0,.23-.19,.42-.42,.42s-.42-.19-.42-.42,.19-.42,.42-.42,.42,.19,.42,.42Z"/><path class="cls-23" d="M8.64,34.31c0,.2-.16,.37-.37,.37s-.37-.16-.37-.37,.16-.37,.37-.37,.37,.16,.37,.37Z"/><path class="cls-23" d="M7.39,35.52c0,.17-.14,.31-.31,.31s-.31-.14-.31-.31,.14-.31,.31-.31,.31,.14,.31,.31Z"/><circle class="cls-23" cx="5.88" cy="36.74" r=".26"/></g><path class="cls-33" d="M19.25,56.07c0,.32-.26,.59-.59,.59s-.59-.26-.59-.59,.26-.59,.59-.59,.59,.26,.59,.59Z"/><g class="cls-30"><g><rect class="cls-28" x="36.18" y="41.37" width=".76" height="24.54" transform="translate(24.48 117.41) rotate(-135)"/><rect class="cls-28" x="34.7" y="39.9" width=".76" height="24.54" transform="translate(23.01 113.86) rotate(-135.01)"/><rect class="cls-28" x="33.23" y="38.42" width=".76" height="24.54" transform="translate(21.54 110.31) rotate(-135.01)"/><rect class="cls-28" x="31.76" y="36.95" width=".76" height="24.54" transform="translate(20.06 106.75) rotate(-135)"/><rect class="cls-28" x="30.29" y="35.48" width=".76" height="24.54" transform="translate(18.59 103.2) rotate(-135)"/><rect class="cls-28" x="28.82" y="34.01" width=".76" height="24.54" transform="translate(17.12 99.64) rotate(-135)"/><rect class="cls-28" x="27.34" y="32.54" width=".76" height="24.54" transform="translate(15.64 96.09) rotate(-135)"/><rect class="cls-28" x="25.87" y="31.06" width=".76" height="24.54" transform="translate(14.17 92.53) rotate(-134.99)"/><rect class="cls-28" x="24.4" y="29.59" width=".76" height="24.54" transform="translate(12.69 88.98) rotate(-134.99)"/><rect class="cls-28" x="22.93" y="28.12" width=".76" height="24.54" transform="translate(11.23 85.42) rotate(-135)"/></g></g><g class="cls-26"><g><rect class="cls-24" x="9.61" y="-6.86" width=".94" height="30.62" transform="translate(11.23 21.57) rotate(-135)"/><rect class="cls-24" x="7.77" y="-8.69" width=".95" height="30.62" transform="translate(9.4 17.13) rotate(-135)"/><rect class="cls-24" x="5.94" y="-10.53" width=".94" height="30.62" transform="translate(7.56 12.7) rotate(-135)"/><rect class="cls-24" x="4.1" y="-12.37" width=".94" height="30.62" transform="translate(5.72 8.26) rotate(-135)"/><rect class="cls-24" x="2.26" y="-14.21" width=".95" height="30.62" transform="translate(3.88 3.82) rotate(-135)"/><rect class="cls-24" x=".42" y="-16.04" width=".94" height="30.62" transform="translate(2.05 -.61) rotate(-135)"/><rect class="cls-24" x="-1.41" y="-17.88" width=".94" height="30.62" transform="translate(.21 -5.05) rotate(-135)"/><rect class="cls-24" x="-3.25" y="-19.72" width=".95" height="30.62" transform="translate(-1.63 -9.49) rotate(-135)"/><rect class="cls-24" x="-5.09" y="-21.56" width=".94" height="30.62" transform="translate(-3.47 -13.92) rotate(-135)"/><rect class="cls-24" x="-6.93" y="-23.39" width=".94" height="30.62" transform="translate(-5.3 -18.36) rotate(-135)"/></g></g><g class="cls-35"><g><rect class="cls-32" x="89.56" y="52.88" width=".36" height="11.81" transform="translate(111.63 163.81) rotate(-135)"/><rect class="cls-32" x="88.85" y="52.17" width=".36" height="11.81" transform="translate(110.92 162.1) rotate(-135)"/><rect class="cls-32" x="88.14" y="51.46" width=".36" height="11.81" transform="translate(110.21 160.39) rotate(-135)"/><rect class="cls-32" x="87.43" y="50.75" width=".36" height="11.81" transform="translate(109.5 158.68) rotate(-135)"/><rect class="cls-32" x="86.72" y="50.04" width=".36" height="11.81" transform="translate(108.79 156.97) rotate(-135)"/><rect class="cls-32" x="86.01" y="49.34" width=".36" height="11.81" transform="translate(108.09 155.25) rotate(-135)"/><rect class="cls-32" x="85.31" y="48.63" width=".36" height="11.81" transform="translate(107.4 153.54) rotate(-135.01)"/><rect class="cls-32" x="84.6" y="47.92" width=".36" height="11.81" transform="translate(106.67 151.83) rotate(-135)"/><rect class="cls-32" x="83.89" y="47.21" width=".36" height="11.81" transform="translate(105.94 150.12) rotate(-134.99)"/><rect class="cls-32" x="83.18" y="46.5" width=".36" height="11.81" transform="translate(105.25 148.41) rotate(-135)"/></g></g><g class="cls-36"><g class="cls-31"><g><rect class="cls-25" x="81.94" y="30.32" width=".55" height="17.83" transform="translate(112.6 125.12) rotate(-134.99)"/><rect class="cls-25" x="80.87" y="29.25" width=".55" height="17.83" transform="translate(111.54 122.53) rotate(-134.99)"/><rect class="cls-25" x="79.8" y="28.18" width=".55" height="17.83" transform="translate(110.48 119.95) rotate(-135)"/><rect class="cls-25" x="78.73" y="27.11" width=".55" height="17.83" transform="translate(109.41 117.36) rotate(-135)"/><rect class="cls-25" x="77.66" y="26.04" width=".55" height="17.83" transform="translate(108.33 114.78) rotate(-135)"/><rect class="cls-25" x="76.59" y="24.97" width=".55" height="17.83" transform="translate(107.27 112.2) rotate(-135)"/><rect class="cls-25" x="75.52" y="23.9" width=".55" height="17.83" transform="translate(106.2 109.61) rotate(-135)"/><rect class="cls-25" x="74.45" y="22.83" width=".55" height="17.83" transform="translate(105.13 107.03) rotate(-135)"/><rect class="cls-25" x="73.38" y="21.76" width=".55" height="17.83" transform="translate(104.06 104.45) rotate(-135)"/><rect class="cls-25" x="72.32" y="20.69" width=".55" height="17.83" transform="translate(102.99 101.86) rotate(-135)"/></g></g></g><g class="cls-38"><g><rect class="cls-25" x="37.07" y="-3.99" width=".55" height="17.83" transform="translate(60.27 34.81) rotate(-135)"/><rect class="cls-25" x="36" y="-5.06" width=".55" height="17.83" transform="translate(59.2 32.23) rotate(-135)"/><rect class="cls-25" x="34.93" y="-6.13" width=".55" height="17.83" transform="translate(58.13 29.65) rotate(-135)"/><rect class="cls-25" x="33.86" y="-7.2" width=".55" height="17.83" transform="translate(57.06 27.07) rotate(-135)"/><rect class="cls-25" x="32.79" y="-8.27" width=".55" height="17.83" transform="translate(55.99 24.48) rotate(-135)"/><rect class="cls-25" x="31.72" y="-9.34" width=".55" height="17.83" transform="translate(54.92 21.9) rotate(-135)"/><rect class="cls-25" x="30.65" y="-10.41" width=".55" height="17.83" transform="translate(53.85 19.32) rotate(-135)"/><rect class="cls-25" x="29.58" y="-11.48" width=".55" height="17.83" transform="translate(52.78 16.73) rotate(-135)"/><rect class="cls-25" x="28.51" y="-12.55" width=".55" height="17.83" transform="translate(51.71 14.15) rotate(-135)"/><rect class="cls-25" x="27.44" y="-13.62" width=".55" height="17.83" transform="translate(50.64 11.57) rotate(-135)"/></g></g><path class="cls-21" d="M68.22,14.1l-23.16,23.16c-1.56,1.56-4.12,1.56-5.68,0h0c-1.56-1.56-1.56-4.12,0-5.68L62.54,8.42c1.56-1.56,4.12-1.56,5.68,0h0c1.56,1.56,1.56,4.12,0,5.68Z"/><path class="cls-13" d="M105.31,29.33l-14.16,14.16c-.95,.95-2.52,.95-3.47,0h0c-.95-.95-.95-2.52,0-3.47l14.16-14.16c.95-.95,2.52-.95,3.47,0h0c.95,.95,.95,2.52,0,3.47Z"/><path class="cls-5" d="M14.61,60.19l-7.03,7.03c-.96,.96-2.52,.96-3.48,0h0c-.96-.96-.96-2.52,0-3.48l11.31-11.31"/><path class="cls-11" d="M68.35,52.27L28.93,91.69c-2.66,2.66-7,2.66-9.66,0h0c-2.66-2.66-2.66-7,0-9.66L58.69,42.6c2.66-2.66,7-2.66,9.66,0h0c2.66,2.66,2.66,7,0,9.66Z"/><path class="cls-28" d="M73.68,71.6l-17.81,17.81c-1.2,1.2-3.16,1.2-4.37,0h0c-1.2-1.2-1.2-3.16,0-4.37l17.81-17.81c1.2-1.2,3.16-1.2,4.37,0h0c1.2,1.2,1.2,3.16,0,4.37Z"/><path class="cls-10" d="M24.93,15.92c-1.43,1.43-3.76,1.43-5.19,0s-1.43-3.76,0-5.19,3.76-1.43,5.19,0"/><path class="cls-20" d="M82.66,22.84c0-3.01,2.44-5.45,5.45-5.45s5.45,2.44,5.45,5.45-2.44,5.45-5.45,5.45"/><path class="cls-4" d="M75.49,63.21c0-1.4,1.14-2.54,2.54-2.54s2.54,1.14,2.54,2.54-1.14,2.54-2.54,2.54"/><path class="cls-28" d="M50.83,26.2c0,.21-.17,.39-.39,.39s-.39-.17-.39-.39,.17-.39,.39-.39,.39,.17,.39,.39Z"/><path class="cls-28" d="M49.56,27.73c0,.36-.29,.65-.65,.65s-.65-.29-.65-.65,.29-.65,.65-.65,.65,.29,.65,.65Z"/><circle class="cls-28" cx="47.01" cy="29.63" r=".91"/><path class="cls-28" d="M46.16,31.66c0,.65-.53,1.17-1.17,1.17s-1.17-.53-1.17-1.17,.53-1.17,1.17-1.17,1.17,.53,1.17,1.17Z"/><circle class="cls-28" cx="42.43" cy="34.21" r="1.44"/><circle class="cls-17" cx="81.6" cy="49.57" r="1.44"/><path class="cls-32" d="M36.48,25.38c0,.79-.64,1.44-1.44,1.44s-1.44-.64-1.44-1.44,.64-1.44,1.44-1.44,1.44,.64,1.44,1.44Z"/><path class="cls-33" d="M5.78,22.84c0,.4-.32,.72-.72,.72s-.72-.32-.72-.72,.32-.72,.72-.72,.72,.32,.72,.72Z"/><path class="cls-33" d="M44.11,6.81c0,.4-.32,.72-.72,.72s-.72-.32-.72-.72,.32-.72,.72-.72,.72,.32,.72,.72Z"/><circle class="cls-28" cx="18.53" cy="37.29" r="1.17"/><path class="cls-25" d="M71.02,59.46c0,.41-.34,.75-.75,.75s-.75-.33-.75-.75,.34-.75,.75-.75,.75,.34,.75,.75Z"/><path class="cls-25" d="M74.24,46.49c0,.21-.17,.37-.37,.37s-.37-.17-.37-.37,.17-.37,.37-.37,.37,.17,.37,.37Z"/><circle class="cls-33" cx="43.39" cy="46.11" r=".37"/><circle class="cls-33" cx="83.87" cy="66.84" r=".37"/><path class="cls-33" d="M100.68,51.65c0,.38-.3,.68-.68,.68s-.68-.3-.68-.68,.3-.68,.68-.68,.68,.3,.68,.68Z"/><path class="cls-32" d="M22.05,.06c0,.38-.3,.68-.68,.68s-.68-.3-.68-.68,.3-.68,.68-.68,.68,.3,.68,.68Z"/><path class="cls-32" d="M1.09,39.14c0,.6-.49,1.09-1.09,1.09s-1.09-.49-1.09-1.09,.49-1.09,1.09-1.09,1.09,.49,1.09,1.09Z"/><path class="cls-33" d="M14.14,70.61c0,.37-.3,.67-.67,.67s-.67-.3-.67-.67,.3-.67,.67-.67,.67,.3,.67,.67Z"/><path class="cls-28" d="M101.84,20.37c0,.82-.67,1.49-1.49,1.49s-1.49-.67-1.49-1.49,.67-1.49,1.49-1.49,1.49,.67,1.49,1.49Z"/><path class="cls-28" d="M44.83,67.75c0,.4-.32,.72-.72,.72s-.72-.32-.72-.72,.32-.72,.72-.72,.72,.32,.72,.72Z"/><g><path class="cls-6" d="M18.78,61c1.8-.92,4.01-.2,4.93,1.6s.2,4.01-1.6,4.93-4.01,.2-4.93-1.6"/><path class="cls-28" d="M21.37,64.27c0,.59-.48,1.06-1.06,1.06s-1.06-.48-1.06-1.06,.48-1.06,1.06-1.06,1.06,.48,1.06,1.06Z"/></g><path class="cls-16" d="M61.39,52.43c0,1.58-1.28,2.87-2.87,2.87s-2.87-1.28-2.87-2.87,1.28-2.87,2.87-2.87,2.87,1.28,2.87,2.87Z"/><circle class="cls-24" cx="100" cy="70.7" r="11.83"/><circle class="cls-1" cx="1.63" cy="0" r="15.7"/><circle class="cls-37" cx="100" cy="70.7" r="5.19"/><circle class="cls-15" cx="100" cy="70.7" r="7.92"/><circle class="cls-8" cx="100" cy="70.7" r="9.99"/><g><path class="cls-28" d="M11.18,15.26c0,1.64-1.33,2.97-2.97,2.97s-2.97-1.33-2.97-2.97,1.33-2.97,2.97-2.97,2.97,1.33,2.97,2.97Z"/><circle class="cls-37" cx="8.2" cy="15.26" r="1.13"/></g><path class="cls-24" d="M13.96,45.12L-3.93,63.01c-.9,.9-2.37,.9-3.26,0h0c-.9-.9-.9-2.37,0-3.26L10.7,41.86c.9-.9,2.37-.9,3.26,0h0c.9,.9,.9,2.37,0,3.26Z"/><g><path class="cls-12" d="M14.27,28.12l7.03-7.03c.96-.96,2.52-.96,3.47,0h0c.96,.96,.96,2.52,0,3.48l-11.31,11.31"/><path class="cls-12" d="M16.28,40.02l-7.03,7.03c-.96,.96-2.52,.96-3.48,0h0c-.96-.96-.96-2.52,0-3.48l11.31-11.31"/></g><line class="cls-9" x1="113.53" y1="-27.19" x2="61.39" y2="24.95"/><line class="cls-14" x1="53.14" y1="44.63" x2="1" y2="96.77"/><line class="cls-7" x1="27.6" y1="9.27" x2="11.36" y2="25.51"/><line class="cls-7" x1="75.98" y1="15.96" x2="55.22" y2="36.72"/><line class="cls-7" x1="88.17" y1="6.61" x2="67.4" y2="27.38"/><line class="cls-7" x1="65.8" y1="-2.11" x2="49.56" y2="14.13"/><line class="cls-7" x1="91.07" y1="-2.11" x2="74.84" y2="14.13"/><line class="cls-22" x1="59.33" y1="64.56" x2="43.09" y2="80.8"/><line class="cls-22" x1="108.12" y1="32.8" x2="91.88" y2="49.03"/><line class="cls-22" x1="59.83" y1="26.56" x2="43.59" y2="42.79"/><line class="cls-14" x1="9.13" y1="54.56" x2="-7.1" y2="70.79"/><line class="cls-14" x1="98.13" y1="-6.19" x2="81.89" y2="10.05"/><line class="cls-14" x1="67.9" y1="61.83" x2="51.66" y2="78.06"/><line class="cls-3" x1="97.88" y1="33.29" x2="81.64" y2="49.53"/><line class="cls-7" x1="21.78" y1="13.32" x2="5.55" y2="29.55"/><g><path class="cls-2" d="M52.76,10.54c0-.21,.17-.39,.39-.39s.39,.17,.39,.39-.17,.39-.39,.39-.39-.17-.39-.39Z"/><path class="cls-2" d="M54.03,9.01c0-.36,.29-.65,.65-.65s.65,.29,.65,.65-.29,.65-.65,.65-.65-.29-.65-.65Z"/><path class="cls-2" d="M55.66,7.11c0-.5,.41-.91,.91-.91s.91,.41,.91,.91-.41,.91-.91,.91-.91-.41-.91-.91Z"/><path class="cls-2" d="M57.43,5.08c0-.65,.53-1.17,1.17-1.17s1.17,.53,1.17,1.17-.53,1.17-1.17,1.17-1.17-.53-1.17-1.17Z"/><path class="cls-2" d="M59.72,2.53c0-.79,.64-1.44,1.44-1.44s1.44,.64,1.44,1.44-.64,1.44-1.44,1.44-1.44-.64-1.44-1.44Z"/></g><g><g><circle class="cls-32" cx="95.05" cy="5.54" r=".26"/><path class="cls-32" d="M95.63,4.53c0-.24,.19-.43,.43-.43s.43,.19,.43,.43-.19,.43-.43,.43-.43-.19-.43-.43Z"/><circle class="cls-32" cx="97.32" cy="3.27" r=".6"/><circle class="cls-32" cx="98.66" cy="1.93" r=".78"/><circle class="cls-32" cx="100.35" cy=".24" r=".95"/></g><g><path class="cls-32" d="M94.37,6.48c0,.14-.11,.26-.26,.26s-.26-.11-.26-.26,.11-.26,.26-.26,.26,.11,.26,.26Z"/><path class="cls-32" d="M93.53,7.49c0,.24-.19,.43-.43,.43s-.43-.19-.43-.43,.19-.43,.43-.43,.43,.19,.43,.43Z"/><circle class="cls-32" cx="91.85" cy="8.75" r=".6"/><circle class="cls-32" cx="90.5" cy="10.09" r=".78"/><circle class="cls-32" cx="88.81" cy="11.78" r=".95"/></g></g><g class="cls-29"><g><rect class="cls-28" x="61.73" y="31.84" width=".23" height="7.47" transform="translate(80.41 104.47) rotate(-135)"/><rect class="cls-28" x="61.28" y="31.39" width=".23" height="7.47" transform="translate(79.97 103.38) rotate(-135)"/><rect class="cls-28" x="60.83" y="30.95" width=".23" height="7.47" transform="translate(79.52 102.3) rotate(-135)"/><rect class="cls-28" x="60.38" y="30.5" width=".23" height="7.47" transform="translate(79.07 101.22) rotate(-135)"/><rect class="cls-28" x="59.93" y="30.05" width=".23" height="7.47" transform="translate(78.62 100.14) rotate(-135)"/><rect class="cls-28" x="59.49" y="29.6" width=".23" height="7.47" transform="translate(78.17 99.05) rotate(-135)"/><rect class="cls-28" x="59.04" y="29.15" width=".23" height="7.47" transform="translate(77.72 97.97) rotate(-135)"/><rect class="cls-28" x="58.59" y="28.7" width=".23" height="7.47" transform="translate(77.28 96.89) rotate(-135)"/><rect class="cls-28" x="58.14" y="28.25" width=".23" height="7.47" transform="translate(76.83 95.81) rotate(-135)"/><rect class="cls-28" x="57.69" y="27.81" width=".23" height="7.47" transform="translate(76.38 94.72) rotate(-135)"/></g></g><circle class="cls-25" cx="74.45" cy="20.33" r=".37"/><g><path class="cls-5" d="M46.21,4.48l6.76-6.76c.92-.92,2.42-.92,3.34,0h0c.92,.92,.92,2.42,0,3.34l-10.87,10.87"/><path class="cls-5" d="M48.14,15.92l-6.76,6.76c-.92,.92-2.42,.92-3.34,0h0c-.92-.92-.92-2.42,0-3.34l10.87-10.87"/></g></g></g></g></g></g></svg>